HIERARCHY
ROOT Hips
{
  OFFSET 355.919 88.6782 209.25
  CHANNELS 6 Xposition Yposition Zposition Zrotation Xrotation Yrotation
  JOINT RightUpLeg
  {
    OFFSET -9.26382 -1.55446 0.00844472
    CHANNELS 6 Xposition Yposition Zposition Zrotation Xrotation Yrotation
    JOINT RightLeg
    {
      OFFSET 0.0144986 -41.8881 0.0482793
      CHANNELS 6 Xposition Yposition Zposition Zrotation Xrotation Yrotation
      JOINT RightFoot
      {
        OFFSET 0.175356 -43.1511 -0.251331
        CHANNELS 6 Xposition Yposition Zposition Zrotation Xrotation Yrotation
        End Site
        {
          OFFSET 0 -7.69 17.5
        }
      }
    }
  }
  JOINT LeftUpLeg
  {
    OFFSET 9.28103 -1.62168 -0.024346
    CHANNELS 6 Xposition Yposition Zposition Zrotation Xrotation Yrotation
    JOINT LeftLeg
    {
      OFFSET 0.0683869 -41.8854 -0.0100271
      CHANNELS 6 Xposition Yposition Zposition Zrotation Xrotation Yrotation
      JOINT LeftFoot
      {
        OFFSET 0.178697 -40.5226 -0.0480906
        CHANNELS 6 Xposition Yposition Zposition Zrotation Xrotation Yrotation
        End Site
        {
          OFFSET 0 -7.69 17.5
        }
      }
    }
  }
  JOINT Spine
  {
    OFFSET 0.0359255 14.2986 0.00976463
    CHANNELS 6 Xposition Yposition Zposition Zrotation Xrotation Yrotation
    JOINT Spine1
    {
      OFFSET 0.0301978 9.70929 0.00161527
      CHANNELS 6 Xposition Yposition Zposition Zrotation Xrotation Yrotation
      JOINT Spine2
      {
        OFFSET 0.0345486 10.1164 0.0148506
        CHANNELS 6 Xposition Yposition Zposition Zrotation Xrotation Yrotation
        JOINT Spine3
        {
          OFFSET 0.0278231 9.7233 0.0199686
          CHANNELS 6 Xposition Yposition Zposition Zrotation Xrotation Yrotation
          JOINT Neck
          {
            OFFSET 0.0279954 10.3864 0.0305175
            CHANNELS 6 Xposition Yposition Zposition Zrotation Xrotation Yrotation
            JOINT Head
            {
              OFFSET 0.00588751 9.4705 0.0157915
              CHANNELS 6 Xposition Yposition Zposition Zrotation Xrotation Yrotation
              End Site
              {
                OFFSET 0 15.95 0
              }
            }
          }
          JOINT RightShoulder
          {
            OFFSET -3.17841 6.92762 0.014735
            CHANNELS 6 Xposition Yposition Zposition Zrotation Xrotation Yrotation
            JOINT RightArm
            {
              OFFSET -12.7694 0.00449118 0.0308372
              CHANNELS 6 Xposition Yposition Zposition Zrotation Xrotation Yrotation
              JOINT RightForeArm
              {
                OFFSET -26.5029 -0.053552 0.0628787
                CHANNELS 6 Xposition Yposition Zposition Zrotation Xrotation Yrotation
                JOINT RightHand
                {
                  OFFSET -26.0012 -0.0444617 0.0174965
                  CHANNELS 6 Xposition Yposition Zposition Zrotation Xrotation Yrotation
                  JOINT RightHandThumb1
                  {
                    OFFSET -2.48905 0.190105 3.12053
                    CHANNELS 6 Xposition Yposition Zposition Zrotation Xrotation Yrotation
                    JOINT RightHandThumb2
                    {
                      OFFSET -3.68274 0 0
                      CHANNELS 6 Xposition Yposition Zposition Zrotation Xrotation Yrotation
                      JOINT RightHandThumb3
                      {
                        OFFSET -2.55832 0 0
                        CHANNELS 6 Xposition Yposition Zposition Zrotation Xrotation Yrotation
                        End Site
                        {
                          OFFSET -2.194 0 0
                        }
                      }
                    }
                  }
                  JOINT RightInHandIndex
                  {
                    OFFSET -3.22368 0.508421 1.97842
                    CHANNELS 6 Xposition Yposition Zposition Zrotation Xrotation Yrotation
                    JOINT RightHandIndex1
                    {
                      OFFSET -5.21684 -0.091368 0.999158
                      CHANNELS 6 Xposition Yposition Zposition Zrotation Xrotation Yrotation
                      JOINT RightHandIndex2
                      {
                        OFFSET -3.61937 0 0
                        CHANNELS 6 Xposition Yposition Zposition Zrotation Xrotation Yrotation
                        JOINT RightHandIndex3
                        {
                          OFFSET -2.0521 0 0
                          CHANNELS 6 Xposition Yposition Zposition Zrotation Xrotation Yrotation
                          End Site
                          {
                            OFFSET -1.805 0 0
                          }
                        }
                      }
                    }
                  }
                  JOINT RightInHandMiddle
                  {
                    OFFSET -3.38211 0.517263 0.756737
                    CHANNELS 6 Xposition Yposition Zposition Zrotation Xrotation Yrotation
                    JOINT RightHandMiddle1
                    {
                      OFFSET -5.17411 -0.084 0.313895
                      CHANNELS 6 Xposition Yposition Zposition Zrotation Xrotation Yrotation
                      JOINT RightHandMiddle2
                      {
                        OFFSET -3.94947 0 0
                        CHANNELS 6 Xposition Yposition Zposition Zrotation Xrotation Yrotation
                        JOINT RightHandMiddle3
                        {
                          OFFSET -2.47579 0 0
                          CHANNELS 6 Xposition Yposition Zposition Zrotation Xrotation Yrotation
                          End Site
                          {
                            OFFSET -1.975 0 0
                          }
                        }
                      }
                    }
                  }
                  JOINT RightInHandRing
                  {
                    OFFSET -3.36516 0.537895 -0.128947
                    CHANNELS 6 Xposition Yposition Zposition Zrotation Xrotation Yrotation
                    JOINT RightHandRing1
                    {
                      OFFSET -4.63474 -0.022105 -0.478947
                      CHANNELS 6 Xposition Yposition Zposition Zrotation Xrotation Yrotation
                      JOINT RightHandRing2
                      {
                        OFFSET -3.44238 0 0
                        CHANNELS 6 Xposition Yposition Zposition Zrotation Xrotation Yrotation
                        JOINT RightHandRing3
                        {
                          OFFSET -2.3881 0 0
                          CHANNELS 6 Xposition Yposition Zposition Zrotation Xrotation Yrotation
                          End Site
                          {
                            OFFSET -1.857 0 0
                          }
                        }
                      }
                    }
                  }
                  JOINT RightInHandPinky
                  {
                    OFFSET -3.16105 0.469368 -1.20179
                    CHANNELS 6 Xposition Yposition Zposition Zrotation Xrotation Yrotation
                    JOINT RightHandPinky1
                    {
                      OFFSET -4.14105 -0.022105 -1.09053
                      CHANNELS 6 Xposition Yposition Zposition Zrotation Xrotation Yrotation
                      JOINT RightHandPinky2
                      {
                        OFFSET -2.75653 0 0
                        CHANNELS 6 Xposition Yposition Zposition Zrotation Xrotation Yrotation
                        JOINT RightHandPinky3
                        {
                          OFFSET -1.74189 0 0
                          CHANNELS 6 Xposition Yposition Zposition Zrotation Xrotation Yrotation
                          End Site
                          {
                            OFFSET -1.645 0 0
                          }
                        }
                      }
                    }
                  }
                }
              }
            }
          }
          JOINT LeftShoulder
          {
            OFFSET 3.22898 6.91754 -0.00370018
            CHANNELS 6 Xposition Yposition Zposition Zrotation Xrotation Yrotation
            JOINT LeftArm
            {
              OFFSET 12.8251 -0.0146006 -0.0356571
              CHANNELS 6 Xposition Yposition Zposition Zrotation Xrotation Yrotation
              JOINT LeftForeArm
              {
                OFFSET 26.4992 -0.00909523 -0.0494304
                CHANNELS 6 Xposition Yposition Zposition Zrotation Xrotation Yrotation
                JOINT LeftHand
                {
                  OFFSET 26.0042 0.00795665 -0.0187612
                  CHANNELS 6 Xposition Yposition Zposition Zrotation Xrotation Yrotation
                  JOINT LeftHandThumb1
                  {
                    OFFSET 2.48905 0.190105 3.12053
                    CHANNELS 6 Xposition Yposition Zposition Zrotation Xrotation Yrotation
                    JOINT LeftHandThumb2
                    {
                      OFFSET 3.68274 0 0
                      CHANNELS 6 Xposition Yposition Zposition Zrotation Xrotation Yrotation
                      JOINT LeftHandThumb3
                      {
                        OFFSET 2.55832 0 0
                        CHANNELS 6 Xposition Yposition Zposition Zrotation Xrotation Yrotation
                        End Site
                        {
                          OFFSET 2.194 0 0
                        }
                      }
                    }
                  }
                  JOINT LeftInHandIndex
                  {
                    OFFSET 3.22368 0.508421 1.97842
                    CHANNELS 6 Xposition Yposition Zposition Zrotation Xrotation Yrotation
                    JOINT LeftHandIndex1
                    {
                      OFFSET 5.21684 -0.091368 0.999158
                      CHANNELS 6 Xposition Yposition Zposition Zrotation Xrotation Yrotation
                      JOINT LeftHandIndex2
                      {
                        OFFSET 3.61937 0 0
                        CHANNELS 6 Xposition Yposition Zposition Zrotation Xrotation Yrotation
                        JOINT LeftHandIndex3
                        {
                          OFFSET 2.0521 0 0
                          CHANNELS 6 Xposition Yposition Zposition Zrotation Xrotation Yrotation
                          End Site
                          {
                            OFFSET 1.805 0 0
                          }
                        }
                      }
                    }
                  }
                  JOINT LeftInHandMiddle
                  {
                    OFFSET 3.38211 0.517263 0.756737
                    CHANNELS 6 Xposition Yposition Zposition Zrotation Xrotation Yrotation
                    JOINT LeftHandMiddle1
                    {
                      OFFSET 5.17411 -0.084 0.313895
                      CHANNELS 6 Xposition Yposition Zposition Zrotation Xrotation Yrotation
                      JOINT LeftHandMiddle2
                      {
                        OFFSET 3.94947 0 0
                        CHANNELS 6 Xposition Yposition Zposition Zrotation Xrotation Yrotation
                        JOINT LeftHandMiddle3
                        {
                          OFFSET 2.47579 0 0
                          CHANNELS 6 Xposition Yposition Zposition Zrotation Xrotation Yrotation
                          End Site
                          {
                            OFFSET 1.975 0 0
                          }
                        }
                      }
                    }
                  }
                  JOINT LeftInHandRing
                  {
                    OFFSET 3.36516 0.537895 -0.128947
                    CHANNELS 6 Xposition Yposition Zposition Zrotation Xrotation Yrotation
                    JOINT LeftHandRing1
                    {
                      OFFSET 4.63474 -0.022105 -0.478947
                      CHANNELS 6 Xposition Yposition Zposition Zrotation Xrotation Yrotation
                      JOINT LeftHandRing2
                      {
                        OFFSET 3.44238 0 0
                        CHANNELS 6 Xposition Yposition Zposition Zrotation Xrotation Yrotation
                        JOINT LeftHandRing3
                        {
                          OFFSET 2.3881 0 0
                          CHANNELS 6 Xposition Yposition Zposition Zrotation Xrotation Yrotation
                          End Site
                          {
                            OFFSET 1.857 0 0
                          }
                        }
                      }
                    }
                  }
                  JOINT LeftInHandPinky
                  {
                    OFFSET 3.16105 0.469368 -1.20179
                    CHANNELS 6 Xposition Yposition Zposition Zrotation Xrotation Yrotation
                    JOINT LeftHandPinky1
                    {
                      OFFSET 4.14105 -0.022105 -1.09053
                      CHANNELS 6 Xposition Yposition Zposition Zrotation Xrotation Yrotation
                      JOINT LeftHandPinky2
                      {
                        OFFSET 2.75653 0 0
                        CHANNELS 6 Xposition Yposition Zposition Zrotation Xrotation Yrotation
                        JOINT LeftHandPinky3
                        {
                          OFFSET 1.74189 0 0
                          CHANNELS 6 Xposition Yposition Zposition Zrotation Xrotation Yrotation
                          End Site
                          {
                            OFFSET 1.645 0 0
                          }
                        }
                      }
                    }
                  }
                }
              }
            }
          }
        }
      }
    }
  }
}
MOTION
Frames:	3
Frame Time:	0.00833333
344.623 87.6401 201.067 23.1352 -0.783978 -133.62 -9.27276 -1.57425 0.00397366 33.5825 -33.401 33.0721 0.00655883 -41.8835 0.034997 -8.09972 12.4519 -0.908892 0.38813 -40.9624 0.260943 7.41093 9.8524 45.955 9.2634 -1.57683 0.0934974 30.2649 -6.95879 18.9411 0.0741032 -41.8952 0.0621669 -19.6841 35.8576 17.5329 0.185242 -43.2717 -0.25852 3.30092 -25.929 20.0575 0.00093079 14.302 0.0848872 -6.59607 -2.0713 -10.4979 0.00627386 9.71747 0.00839091 -1.61596 -0.783599 -2.56148 -0.0226119 10.1222 -0.107575 -2.68825 -1.38779 -4.17141 0.00723236 9.72311 -0.0275923 -0.737206 -0.514993 2.62437 0.002928 10.3834 0.170545 -0.434717 -8.08982 38.4255 -0.144706 9.44367 0.0987743 -11.6451 7.22675 26.5573 -3.20217 6.91685 0.0173216 3.70603 2.10072 1.84348 -12.7924 0.00712494 0.108744 40.4354 -61.739 6.93754 -26.5131 -0.039379 0.030468 42.0809 0.728239 117.194 -25.9872 -0.0236084 -0.0682832 7.08364 -20.9008 4.90338 -2.48905 0.190105 3.12053 28.184 10.7294 19.1592 -3.68274 5.68434e-14 0 4.06485e-15 -5.56597e-15 -10 -2.55832 0 0 2.34366e-15 -1.59028e-15 -10 -3.22368 0.508421 1.97842 1.98785e-16 -3.18055e-15 1.98785e-15 -5.21684 -0.091368 0.999158 19.9818 0.871897 2.3964 -3.61937 -5.68434e-14 0 24 -1.59028e-15 -4.77083e-15 -2.0521 -5.68434e-14 0 20 -3.18055e-15 -0 -3.38211 0.517263 0.756737 1.98785e-16 -3.18055e-15 1.98785e-15 -5.17411 -0.084 0.313895 20 6.36111e-15 1.19271e-15 -3.94947 -5.68434e-14 -5.68434e-14 24 6.36111e-15 3.18055e-15 -2.47579 2.84217e-14 0 20 1.59028e-15 -0 -3.36516 0.537895 -0.128947 1.98785e-16 -3.18055e-15 1.98785e-15 -4.63474 -0.022105 -0.478947 19.9748 -1.02565 -2.81938 -3.44238 5.68434e-14 0 24 6.36111e-15 -6.36111e-15 -2.3881 -2.84217e-14 0 20 -1.59028e-15 3.18055e-15 -3.16105 0.469368 -1.20179 1.98785e-16 -3.18055e-15 1.98785e-15 -4.14105 -0.022105 -1.09053 19.7815 -3.00948 -8.30515 -2.75653 -5.68434e-14 0 24 0 -0 -1.74189 -2.84217e-14 5.68434e-14 20 0 -1.59028e-15 3.19244 6.91803 -0.0265842 2.50439 -23.7543 -53.686 12.8065 -0.0214253 -0.00890124 -10.6927 28.4693 -112.645 26.5157 -0.0319575 -0.0488687 31.5037 -13.7136 -25.4685 25.9386 -0.0323323 -0.0451739 -39.8943 -11.5894 -15.3341 2.48905 0.190105 3.12053 -28.184 10.7294 -19.1592 3.68274 -2.84217e-14 -1.42109e-14 -5.57328e-15 -1.59028e-15 10 2.55832 0 -2.84217e-14 -3.20926e-15 -7.95139e-16 10 3.22368 0.508421 1.97842 1.19271e-15 0 3.97569e-16 5.21684 -0.091368 0.999158 -19.9818 0.871897 -2.3964 3.61937 -2.84217e-14 0 -24 -1.59028e-15 -0 2.0521 5.68434e-14 0 -20 0 -0 3.38211 0.517263 0.756737 1.19271e-15 0 3.97569e-16 5.17411 -0.084 0.313895 -20 1.59028e-15 -1.19271e-15 3.94947 0 0 -24 0 1.59028e-15 2.47579 5.68434e-14 0 -20 -1.59028e-15 4.77083e-15 3.36516 0.537895 -0.128947 1.19271e-15 0 3.97569e-16 4.63474 -0.022105 -0.478947 -19.9748 -1.02565 2.81938 3.44238 -2.84217e-14 0 -24 0 -7.95139e-16 2.3881 -5.68434e-14 0 -20 -1.59028e-15 1.59028e-15 3.16105 0.469368 -1.20179 1.19271e-15 0 3.97569e-16 4.14105 -0.022105 -1.09053 -19.7815 -3.00948 8.30515 2.75653 -2.84217e-14 0 -24 -3.18055e-15 1.19271e-15 1.74189 0 -5.68434e-14 -20 0 4.77083e-15 
344.623 87.6383 200.967 23.1557 -0.767494 -133.818 -9.26053 -1.57406 -0.0116575 33.6492 -33.3649 32.4034 0.0203195 -41.8832 0.0350127 -8.16895 12.4052 -0.270663 0.458982 -40.9655 0.276488 7.47582 9.84691 46.1416 9.26217 -1.57742 0.108501 30.318 -6.78468 18.9055 0.0660573 -41.8939 0.0727233 -19.7424 35.7903 17.5435 0.208352 -43.2896 -0.237944 3.28482 -25.9563 20.2245 0.00527571 14.3022 0.0823642 -6.59985 -2.17196 -10.6322 0.00720357 9.71745 0.00800692 -1.6156 -0.811111 -2.59232 -0.0219116 10.1224 -0.106022 -2.68658 -1.43328 -4.21996 0.00731887 9.72311 -0.0279337 -0.734726 -0.510608 2.63024 0.00282399 10.3837 0.17133 -0.390297 -8.07 38.7735 -0.144398 9.44359 0.0986315 -11.5892 7.39377 26.4209 -3.20369 6.91665 0.0167264 3.66354 2.15938 1.7894 -12.7935 0.00721487 0.108092 39.9263 -61.8662 6.33898 -26.5108 -0.0397278 0.028418 41.3738 0.754782 117.784 -25.9869 -0.0226517 -0.0693596 6.94057 -20.7665 5.03187 -2.48905 0.190105 3.12053 28.184 10.7294 19.1592 -3.68274 5.68434e-14 0 1.06643e-14 -4.77083e-15 -10 -2.55832 0 0 6.01626e-15 -7.95139e-16 -10 -3.22368 0.508421 1.97842 -2.48481e-15 0 -0 -5.21684 -0.091368 0.999158 19.9818 0.871897 2.3964 -3.61937 5.68434e-14 0 24 6.36111e-15 -1.59028e-15 -2.0521 0 5.68434e-14 20 -1.59028e-15 -1.59028e-15 -3.38211 0.517263 0.756737 -2.48481e-15 0 -0 -5.17411 -0.084 0.313895 20 0 1.19271e-15 -3.94947 -5.68434e-14 0 24 3.18055e-15 -3.18055e-15 -2.47579 0 5.68434e-14 20 3.18055e-15 -4.77083e-15 -3.36516 0.537895 -0.128947 -2.48481e-15 0 -0 -4.63474 -0.022105 -0.478947 19.9748 -1.02565 -2.81938 -3.44238 0 5.68434e-14 24 0 -0 -2.3881 0 0 20 0 -0 -3.16105 0.469368 -1.20179 -2.48481e-15 0 -0 -4.14105 -0.022105 -1.09053 19.7815 -3.00948 -8.30515 -2.75653 0 0 24 0 -0 -1.74189 2.84217e-14 5.68434e-14 20 -6.36111e-15 -0 3.18116 6.91622 -0.0170088 2.5965 -23.7211 -53.5508 12.8085 -0.0276874 0.00740261 -10.5948 28.2935 -112.839 26.515 -0.0307655 -0.047815 31.6269 -13.7728 -25.9573 25.94 -0.0320186 -0.04473 -39.8862 -11.4043 -15.5258 2.48905 0.190105 3.12053 -28.184 10.7294 -19.1592 3.68274 -2.84217e-14 0 -5.03124e-15 8.44835e-16 10 2.55832 0 -2.84217e-14 -7.16691e-16 1.2921e-15 10 3.22368 0.508421 1.97842 -1.49089e-15 3.18055e-15 -3.97569e-16 5.21684 -0.091368 0.999158 -19.9818 0.871897 -2.3964 3.61937 0 0 -24 1.59028e-15 -0 2.0521 -5.68434e-14 0 -20 0 -3.18055e-15 3.38211 0.517263 0.756737 -1.49089e-15 3.18055e-15 -3.97569e-16 5.17411 -0.084 0.313895 -20 1.59028e-15 -5.96354e-16 3.94947 2.84217e-14 0 -24 1.59028e-15 -1.59028e-15 2.47579 0 0 -20 -3.18055e-15 -0 3.36516 0.537895 -0.128947 -1.49089e-15 3.18055e-15 -3.97569e-16 4.63474 -0.022105 -0.478947 -19.9748 -1.02565 2.81938 3.44238 -2.84217e-14 0 -24 -1.59028e-15 -3.97569e-16 2.3881 0 0 -20 1.59028e-15 -3.18055e-15 3.16105 0.469368 -1.20179 -1.49089e-15 3.18055e-15 -3.97569e-16 4.14105 -0.022105 -1.09053 -19.7815 -3.00948 8.30515 2.75653 2.84217e-14 0 -24 3.18055e-15 2.98177e-16 1.74189 0 0 -20 0 7.95139e-16 
344.624 87.6359 200.875 23.179 -0.755368 -134.021 -9.26394 -1.57373 -0.0113868 33.7538 -33.2887 32.4046 0.01301 -41.8828 0.0353673 -8.14157 12.4223 -0.306857 0.533081 -40.9686 0.279597 7.50657 9.84872 46.3553 9.26121 -1.57809 0.112873 30.3567 -6.65014 18.8755 0.059293 -41.8928 0.072337 -19.7696 35.7444 17.5509 0.232971 -43.3059 -0.227215 3.25597 -25.9796 20.3984 0.008591 14.3023 0.0798054 -6.60042 -2.27467 -10.7523 0.009419 9.71743 0.00763806 -1.61498 -0.838614 -2.61957 -0.0212189 10.1226 -0.104465 -2.68547 -1.47856 -4.26279 0.0073988 9.72311 -0.028237 -0.732061 -0.507037 2.63619 0.00273756 10.3839 0.172071 -0.344801 -8.05918 39.1556 -0.144114 9.44351 0.0984915 -11.5404 7.56653 26.2661 -3.20518 6.91695 0.017533 3.62591 2.22362 1.70123 -12.7944 0.00728019 0.110511 39.5157 -61.9949 5.81711 -26.5089 -0.0400993 0.021628 40.616 0.792744 118.344 -25.9867 -0.0212914 -0.086439 6.87093 -20.8121 5.3382 -2.48905 0.190105 3.12053 28.184 10.7294 19.1592 -3.68274 0 5.68434e-14 -5.78358e-15 3.97569e-16 -10 -2.55832 0 0 6.41996e-15 -7.95139e-16 -10 -3.22368 0.508421 1.97842 -1.14301e-15 0 -1.98785e-15 -5.21684 -0.091368 0.999158 19.9818 0.871897 2.3964 -3.61937 -5.68434e-14 0 24 4.77083e-15 -1.59028e-15 -2.0521 0 5.68434e-14 20 2.38542e-15 4.77083e-15 -3.38211 0.517263 0.756737 -1.14301e-15 0 -1.98785e-15 -5.17411 -0.084 0.313895 20 -1.59028e-15 7.95139e-16 -3.94947 0 0 24 4.77083e-15 -3.18055e-15 -2.47579 -5.68434e-14 0 20 3.18055e-15 -0 -3.36516 0.537895 -0.128947 -1.14301e-15 0 -1.98785e-15 -4.63474 -0.022105 -0.478947 19.9748 -1.02565 -2.81938 -3.44238 -5.68434e-14 0 24 1.59028e-15 -0 -2.3881 0 0 20 1.59028e-15 -1.59028e-15 -3.16105 0.469368 -1.20179 -1.14301e-15 0 -1.98785e-15 -4.14105 -0.022105 -1.09053 19.7815 -3.00948 -8.30515 -2.75653 0 -5.68434e-14 24 0 -7.95139e-16 -1.74189 0 0 20 0 -0 3.17966 6.91697 -0.014838 2.685 -23.6917 -53.455 12.8104 -0.030459 0.010498 -10.5367 28.1403 -112.981 26.5142 -0.029595 -0.0468361 31.7712 -13.8036 -26.4345 25.9415 -0.0317811 -0.0442944 -39.9084 -11.2489 -15.7131 2.48905 0.190105 3.12053 -28.184 10.7294 -19.1592 3.68274 2.84217e-14 -1.42109e-14 3.53989e-16 -1.2921e-15 10 2.55832 0 0 1.0739e-15 -4.37326e-15 10 3.22368 0.508421 1.97842 -3.97569e-16 3.18055e-15 -5.96354e-16 5.21684 -0.091368 0.999158 -19.9818 0.871897 -2.3964 3.61937 0 2.84217e-14 -24 -2.38542e-15 -0 2.0521 0 0 -20 7.95139e-16 -3.18055e-15 3.38211 0.517263 0.756737 -3.97569e-16 3.18055e-15 -5.96354e-16 5.17411 -0.084 0.313895 -20 0 -0 3.94947 0 0 -24 -3.18055e-15 1.59028e-15 2.47579 0 2.84217e-14 -20 -1.59028e-15 3.18055e-15 3.36516 0.537895 -0.128947 -3.97569e-16 3.18055e-15 -5.96354e-16 4.63474 -0.022105 -0.478947 -19.9748 -1.02565 2.81938 3.44238 0 0 -24 -1.59028e-15 3.18055e-15 2.3881 0 0 -20 -1.59028e-15 -0 3.16105 0.469368 -1.20179 -3.97569e-16 3.18055e-15 -5.96354e-16 4.14105 -0.022105 -1.09053 -19.7815 -3.00948 8.30515 2.75653 0 0 -24 1.59028e-15 -2.83268e-15 1.74189 -5.68434e-14 -2.84217e-14 -20 -3.18055e-15 1.59028e-15 
